<svg xmlns="http://www.w3.org/2000/svg" viewBox="0 0 32 32" role="img" aria-label="Ignite">
  <defs>
    <linearGradient id="igniteFlame" x1="16" y1="1" x2="16" y2="31" gradientUnits="userSpaceOnUse">
      <stop offset="0%" stop-color="#fed7aa"/>
      <stop offset="40%" stop-color="#fb923c"/>
      <stop offset="100%" stop-color="#c2410c"/>
    </linearGradient>
    <linearGradient id="igniteCore" x1="16" y1="14" x2="16" y2="28">
      <stop offset="0%" stop-color="#fff7ed"/>
      <stop offset="100%" stop-color="#fdba74"/>
    </linearGradient>
  </defs>
  <path fill="url(#igniteFlame)" d="M19.8 8.2c-.9 2-2.6 3.4-3.4 5.8-.3-2.6.6-5.2 2.5-7.5-3.9 0-6.8 3.5-7.4 7-.5 2.9.4 5.6 2 7.6-1.3-2.8-1.5-6.3.2-9.5C10.2 8.6 8.5 11.5 7.8 15c-1.1 5.5 1.6 10.9 6.1 13.2.5-2.8 2.8-5 5.6-5.5 1.4 1.8 1.8 4 1.3 6.2 4.5-2.4 6.7-7.8 5.3-13.1-.9-3.5-3.1-6-5.3-7.6z"/>
  <path fill="url(#igniteCore)" d="M16.3 15.5c-1.4 1.8-1.6 4.2-.5 6.1 1.1 2 3.2 3.1 5.5 2.9 1.4-3.2.2-7-1.8-9.6-.8 1.8-.8 3.8.2 5.5-1.1-1.3-1.7-3-1.2-4.7.6-2.3 2.5-4 4.8-4.5-2.8.2-5 2.3-6.2 4.8z"/>
</svg>
